<?xml version="1.0" encoding="UTF-8" standalone="no"?>
<svg
   version="1.1"
   viewBox="0 0 366.26229 356.8415"
   id="svg12"
   width="366.2623"
   height="356.84149"
   xmlns:xlink="http://www.w3.org/1999/xlink"
   xmlns="http://www.w3.org/2000/svg"
   xmlns:svg="http://www.w3.org/2000/svg">
  <defs
     id="defs16">
    <linearGradient
       id="linearGradient886">
      <stop
         style="stop-color:#3771c8;stop-opacity:1"
         offset="0"
         id="stop882" />
      <stop
         style="stop-color:#2ca089;stop-opacity:1"
         offset="1"
         id="stop884" />
    </linearGradient>
    <linearGradient
       id="linearGradient5186">
      <stop
         style="stop-color:#ef2008;stop-opacity:1"
         offset="0"
         id="stop5182" />
      <stop
         style="stop-color:#ff6428;stop-opacity:1"
         offset="1"
         id="stop5184" />
    </linearGradient>
    <linearGradient
       xlink:href="#linearGradient5186"
       id="linearGradient1751"
       x1="225.77231"
       y1="173.93456"
       x2="1111.1683"
       y2="173.93456"
       gradientUnits="userSpaceOnUse"
       gradientTransform="matrix(0.45445997,0,0,0.45445997,-81.537584,183.73007)" />
    <linearGradient
       xlink:href="#linearGradient886"
       id="linearGradient11474"
       gradientUnits="userSpaceOnUse"
       gradientTransform="matrix(0.46303176,0,0,0.46303176,-56.588306,251.53577)"
       x1="225.77231"
       y1="173.93456"
       x2="1111.1683"
       y2="173.93456" />
    <linearGradient
       xlink:href="#linearGradient1160"
       id="linearGradient1094-2"
       gradientUnits="userSpaceOnUse"
       gradientTransform="matrix(0.4787416,0,0,0.4787416,-61.976132,260.06994)"
       x1="239.09921"
       y1="174.31239"
       x2="855.43896"
       y2="174.31239" />
    <linearGradient
       id="linearGradient1160">
      <stop
         style="stop-color:#0d6eff;stop-opacity:1"
         offset="0"
         id="stop1156" />
      <stop
         style="stop-color:#45da64;stop-opacity:1"
         offset="1"
         id="stop1158" />
    </linearGradient>
    <linearGradient
       xlink:href="#linearGradient1160"
       id="linearGradient1207"
       gradientUnits="userSpaceOnUse"
       gradientTransform="matrix(0.4787416,0,0,0.4787416,-61.976131,260.06994)"
       x1="239.09921"
       y1="174.31239"
       x2="855.43896"
       y2="174.31239" />
    <linearGradient
       xlink:href="#linearGradient1160"
       id="linearGradient1422"
       gradientUnits="userSpaceOnUse"
       gradientTransform="matrix(0.4787416,0,0,0.4787416,-61.976131,260.06994)"
       x1="239.09921"
       y1="174.31239"
       x2="855.43896"
       y2="174.31239" />
    <linearGradient
       xlink:href="#linearGradient1160"
       id="linearGradient1426"
       gradientUnits="userSpaceOnUse"
       gradientTransform="matrix(0.4787416,0,0,0.4787416,-25.735983,246.22235)"
       x1="239.09921"
       y1="174.31239"
       x2="855.43896"
       y2="174.31239" />
    <linearGradient
       xlink:href="#linearGradient5186"
       id="linearGradient17043"
       gradientUnits="userSpaceOnUse"
       gradientTransform="matrix(0.47132896,0,0,0.47132896,232.52631,155.52581)"
       x1="225.77231"
       y1="173.93456"
       x2="1111.1683"
       y2="173.93456" />
    <linearGradient
       xlink:href="#linearGradient5186"
       id="linearGradient2720"
       x1="162.25932"
       y1="131.28523"
       x2="258.85034"
       y2="131.28523"
       gradientUnits="userSpaceOnUse"
       gradientTransform="matrix(1.2437711,0,0,1.2437705,-80.474361,-44.019076)" />
    <linearGradient
       xlink:href="#linearGradient886"
       id="linearGradient2995"
       x1="122.06052"
       y1="131.13593"
       x2="298.57767"
       y2="131.13593"
       gradientUnits="userSpaceOnUse" />
  </defs>
  <g
     aria-label="PRIVACYSAFE"
     id="text28081"
     style="font-size:50.3032px;line-height:1.25;fill:url(#linearGradient1751);stroke-width:1.25758">
    <path
       d="m 34.255789,245.87522 q 7.344268,0 11.267917,2.81698 3.973953,2.76668 3.973953,8.30003 0,3.01819 -1.106671,5.18123 -1.056367,2.11273 -3.118798,3.47092 -2.012128,1.30788 -4.929713,1.91152 -2.917586,0.60364 -6.58972,0.60364 h -3.873346 v 12.92792 h -4.87941 v -34.35708 q 2.062431,-0.50303 4.577591,-0.65394 2.565463,-0.20122 4.678197,-0.20122 z m 0.402426,4.27578 q -3.118798,0 -4.778804,0.15091 v 13.68247 h 3.672134 q 2.51516,0 4.527288,-0.30182 2.012128,-0.35213 3.370314,-1.10667 1.408489,-0.80486 2.163037,-2.16304 0.754548,-1.35819 0.754548,-3.47092 0,-2.01213 -0.804851,-3.32001 -0.754548,-1.30789 -2.112734,-2.06243 -1.307883,-0.80486 -3.068495,-1.10668 Q 36.62004,250.151 34.658215,250.151 Z"
       style="font-family:Ubuntu;-inkscape-font-specification:Ubuntu"
       id="path863" />
    <path
       d="m 72.637121,266.49954 q 0.804851,1.00606 2.012128,2.66607 1.25758,1.6097 2.565463,3.62183 1.307883,1.96182 2.565463,4.12486 1.307883,2.16304 2.213341,4.17516 h -5.332139 q -1.006064,-1.91152 -2.213341,-3.87334 -1.156974,-1.96183 -2.364251,-3.72244 -1.207276,-1.81091 -2.414553,-3.37031 -1.156974,-1.5594 -2.112735,-2.71638 -0.653941,0.0503 -1.358186,0.0503 -0.653942,0 -1.358186,0 h -4.376379 v 13.63216 h -4.87941 v -34.35708 q 2.062431,-0.50303 4.577591,-0.65394 2.565463,-0.20122 4.678198,-0.20122 7.344267,0 11.16731,2.76668 3.873346,2.76668 3.873346,8.24972 0,3.47093 -1.861218,5.93578 -1.810915,2.46486 -5.382442,3.67214 z M 65.24255,250.151 q -3.118798,0 -4.778804,0.15091 v 13.12913 h 3.470921 q 2.51516,0 4.527288,-0.25152 2.012128,-0.25151 3.370314,-0.95576 1.40849,-0.70424 2.163038,-1.96182 0.754548,-1.30788 0.754548,-3.42062 0,-1.96182 -0.754548,-3.26971 -0.754548,-1.30788 -2.062431,-2.06243 -1.25758,-0.75455 -3.018192,-1.05637 Q 67.204375,250.151 65.24255,250.151 Z"
       style="font-family:Ubuntu;-inkscape-font-specification:Ubuntu"
       id="path865" />
    <path
       d="m 87.225033,246.22735 h 4.879411 v 34.86011 h -4.879411 z"
       style="font-family:Ubuntu;-inkscape-font-specification:Ubuntu"
       id="path867" />
    <path
       d="m 128.92634,246.22735 q -1.91152,5.53335 -3.67214,10.26185 -1.7103,4.6782 -3.37031,8.90367 -1.66001,4.22546 -3.32001,8.09881 -1.6097,3.82304 -3.32001,7.59578 h -4.57759 q -1.71031,-3.77274 -3.37032,-7.59578 -1.6097,-3.87335 -3.32001,-8.09881 -1.66,-4.22547 -3.42062,-8.90367 -1.760608,-4.7285 -3.621827,-10.26185 h 5.382447 q 2.71637,7.9479 5.33213,15.29217 2.61577,7.34427 5.38245,13.78308 2.76667,-6.38851 5.38244,-13.73278 2.61577,-7.39457 5.28184,-15.34247 z"
       style="font-family:Ubuntu;-inkscape-font-specification:Ubuntu"
       id="path869" />
    <path
       d="m 153.92693,281.08746 q -0.85516,-2.26364 -1.60971,-4.42668 -0.75455,-2.21334 -1.5594,-4.47698 h -15.7952 l -3.1691,8.90366 h -5.08063 q 2.01213,-5.53335 3.77274,-10.21155 1.76062,-4.7285 3.42062,-8.95397 1.71031,-4.22546 3.37032,-8.04851 1.66,-3.87334 3.47092,-7.64608 h 4.47698 q 1.81092,3.77274 3.47092,7.64608 1.66001,3.82305 3.32001,8.04851 1.71031,4.22547 3.47092,8.95397 1.76062,4.6782 3.77274,10.21155 z m -4.5776,-12.92792 q -1.6097,-4.37638 -3.2194,-8.45094 -1.5594,-4.12486 -3.26971,-7.8976 -1.76061,3.77274 -3.37031,7.8976 -1.5594,4.07456 -3.1188,8.45094 z"
       style="font-family:Ubuntu;-inkscape-font-specification:Ubuntu"
       id="path871" />
    <path
       d="m 178.02202,281.84201 q -3.67214,0 -6.69033,-1.20728 -3.01819,-1.20727 -5.18123,-3.52122 -2.16304,-2.31395 -3.37031,-5.68426 -1.15698,-3.42062 -1.15698,-7.797 0,-4.37638 1.30789,-7.74669 1.35818,-3.42062 3.62183,-5.73456 2.26364,-2.31395 5.28183,-3.52123 3.01819,-1.20728 6.43881,-1.20728 2.16304,0 3.87335,0.30182 1.76061,0.30182 3.01819,0.70425 1.30788,0.40242 2.11273,0.80485 0.80486,0.40243 1.10668,0.60364 l -1.40849,4.02425 q -0.45273,-0.30181 -1.30789,-0.65394 -0.85515,-0.35212 -1.96182,-0.70424 -1.05637,-0.35212 -2.36425,-0.55334 -1.25758,-0.25151 -2.56547,-0.25151 -2.76667,0 -4.98001,0.95576 -2.21334,0.95576 -3.77274,2.76667 -1.5594,1.81092 -2.41456,4.42669 -0.80485,2.56546 -0.80485,5.78486 0,3.1188 0.70425,5.68426 0.75455,2.56547 2.21334,4.42669 1.45879,1.81091 3.62183,2.81698 2.21334,1.00606 5.13092,1.00606 3.37032,0 5.58366,-0.70425 2.21334,-0.70424 3.32001,-1.25758 l 1.25758,4.02426 q -0.35212,0.25152 -1.25758,0.65394 -0.90546,0.35212 -2.26364,0.70425 -1.35819,0.35212 -3.1691,0.60364 -1.81092,0.25151 -3.92365,0.25151 z"
       style="font-family:Ubuntu;-inkscape-font-specification:Ubuntu"
       id="path873" />
    <path
       d="m 203.37469,281.08746 v -13.98429 q -3.47092,-5.38244 -6.53942,-10.61397 -3.06849,-5.23153 -5.78486,-10.26185 h 5.73456 q 1.91152,4.12486 4.27577,8.40063 2.36425,4.22547 4.87941,8.14912 2.46486,-3.92365 4.82911,-8.14912 2.36425,-4.27577 4.32608,-8.40063 h 5.43274 q -2.71637,5.03032 -5.78487,10.26185 -3.06849,5.18123 -6.48911,10.51337 v 14.08489 z"
       style="font-family:Ubuntu;-inkscape-font-specification:Ubuntu"
       id="path875" />
    <path
       d="m 233.25478,277.61654 q 7.64608,0 7.64608,-5.23153 0,-1.6097 -0.70424,-2.71637 -0.65394,-1.15698 -1.81092,-1.96183 -1.15697,-0.85515 -2.66607,-1.45879 -1.45879,-0.60364 -3.1188,-1.20728 -1.91152,-0.65394 -3.62183,-1.45879 -1.7103,-0.85515 -2.96788,-1.96182 -1.25758,-1.15698 -2.01213,-2.71638 -0.70425,-1.5594 -0.70425,-3.77274 0,-4.57759 3.1188,-7.14305 3.1188,-2.56547 8.60185,-2.56547 3.1691,0 5.73456,0.70425 2.61577,0.65394 3.82305,1.45879 l -1.5594,3.97396 q -1.05637,-0.65395 -3.16911,-1.25758 -2.06243,-0.65395 -4.8291,-0.65395 -1.40849,0 -2.61577,0.30182 -1.20728,0.30182 -2.11273,0.90546 -0.90546,0.60364 -1.4588,1.5594 -0.50303,0.90546 -0.50303,2.16304 0,1.40849 0.55334,2.36425 0.55333,0.95576 1.5594,1.71031 1.00606,0.70424 2.31394,1.30788 1.35819,0.60364 2.96789,1.20728 2.26365,0.90545 4.12486,1.81091 1.91153,0.90546 3.26971,2.16304 1.40849,1.25758 2.16304,3.01819 0.75455,1.71031 0.75455,4.17517 0,4.57759 -3.37032,7.04244 -3.32001,2.46486 -9.40669,2.46486 -2.06244,0 -3.82305,-0.30182 -1.71031,-0.25151 -3.06849,-0.60364 -1.35819,-0.40242 -2.36425,-0.80485 -0.95576,-0.45273 -1.5091,-0.75455 l 1.45879,-4.02425 q 1.15698,0.65394 3.52123,1.45879 2.36425,0.80485 5.78487,0.80485 z"
       style="font-family:Ubuntu;-inkscape-font-specification:Ubuntu"
       id="path877" />
    <path
       d="m 275.20762,281.08746 q -0.85516,-2.26364 -1.6097,-4.42668 -0.75455,-2.21334 -1.5594,-4.47698 h -15.79521 l -3.1691,8.90366 h -5.08062 q 2.01213,-5.53335 3.77274,-10.21155 1.76061,-4.7285 3.42061,-8.95397 1.71031,-4.22546 3.37032,-8.04851 1.66,-3.87334 3.47092,-7.64608 h 4.47698 q 1.81092,3.77274 3.47093,7.64608 1.66,3.82305 3.32001,8.04851 1.71031,4.22547 3.47092,8.95397 1.76061,4.6782 3.77274,10.21155 z m -4.57759,-12.92792 q -1.60971,-4.37638 -3.21941,-8.45094 -1.5594,-4.12486 -3.26971,-7.8976 -1.76061,3.77274 -3.37031,7.8976 -1.5594,4.07456 -3.1188,8.45094 z"
       style="font-family:Ubuntu;-inkscape-font-specification:Ubuntu"
       id="path879" />
    <path
       d="m 285.26816,281.08746 v -34.86011 h 21.02674 v 4.17516 h -16.14733 v 10.51337 h 14.33641 v 4.12486 h -14.33641 v 16.04672 z"
       style="font-family:Ubuntu;-inkscape-font-specification:Ubuntu"
       id="path881" />
    <path
       d="m 312.28091,281.08746 v -34.86011 h 21.27826 v 4.17516 h -16.39884 v 10.36246 h 14.58792 v 4.07456 h -14.58792 v 12.07277 h 17.65642 v 4.17516 z"
       style="font-family:Ubuntu;-inkscape-font-specification:Ubuntu"
       id="path883" />
  </g>
  <g
     aria-label="SOCIAL"
     transform="scale(1.0534437,0.94926762)"
     id="text28081-3-6"
     style="font-size:52.9909px;line-height:1.25;fill:url(#linearGradient1426);stroke-width:1.25758">
    <path
       d="m 95.025428,345.12509 q 8.054612,0 8.054612,-5.51105 0,-1.69571 -0.74187,-2.86151 -0.68888,-1.21879 -1.90767,-2.06665 -1.218791,-0.90084 -2.808518,-1.53673 -1.536736,-0.63589 -3.285436,-1.27178 -2.013654,-0.68888 -3.815344,-1.53674 -1.801691,-0.90084 -3.126463,-2.06664 -1.324773,-1.21879 -2.119636,-2.86151 -0.741873,-1.64272 -0.741873,-3.97432 0,-4.82217 3.285436,-7.52471 3.285435,-2.70253 9.061443,-2.70253 3.338431,0 6.040961,0.74187 2.75553,0.68888 4.02731,1.53674 l -1.64272,4.18628 q -1.11281,-0.68889 -3.33842,-1.32478 -2.172631,-0.68888 -5.087131,-0.68888 -1.483745,0 -2.755526,0.31795 -1.271782,0.31794 -2.225618,0.95383 -0.953836,0.63589 -1.536736,1.64272 -0.529909,0.95384 -0.529909,2.27861 0,1.48375 0.5829,2.49057 0.5829,1.00683 1.642718,1.80169 1.059818,0.74188 2.437581,1.37777 1.430754,0.63589 3.126463,1.27178 2.384588,0.95383 4.345258,1.90767 2.01365,0.95384 3.4444,2.27861 1.48375,1.32477 2.27861,3.17945 0.79487,1.80169 0.79487,4.39825 0,4.82217 -3.55039,7.41872 -3.4974,2.59656 -9.909302,2.59656 -2.172627,0 -4.027308,-0.31795 -1.801691,-0.26495 -3.232445,-0.63589 -1.430754,-0.42393 -2.490572,-0.84785 -1.006827,-0.47692 -1.589727,-0.79487 l 1.536736,-4.23927 q 1.21879,0.68888 3.709363,1.53674 2.490572,0.84785 6.093953,0.84785 z"
       style="font-family:Ubuntu;-inkscape-font-specification:Ubuntu"
       id="path850" />
    <path
       d="m 113.20128,330.39362 q 0,-4.71619 1.37777,-8.31957 1.43075,-3.60338 3.81534,-5.98797 2.43758,-2.43758 5.61704,-3.65637 3.23244,-1.21879 6.83582,-1.21879 3.55039,0 6.67686,1.21879 3.17945,1.21879 5.56404,3.65637 2.38459,2.38459 3.76235,5.98797 1.43076,3.60338 1.43076,8.31957 0,4.71619 -1.43076,8.31957 -1.37776,3.60338 -3.76235,6.04097 -2.38459,2.38459 -5.56404,3.60338 -3.12647,1.21879 -6.67686,1.21879 -3.60338,0 -6.83582,-1.21879 -3.17946,-1.21879 -5.61704,-3.60338 -2.38459,-2.43759 -3.81534,-6.04097 -1.37777,-3.60338 -1.37777,-8.31957 z m 5.40508,0 q 0,3.33843 0.84785,6.09396 0.84785,2.70253 2.38459,4.6102 1.58973,1.90768 3.81534,2.96749 2.27861,1.00683 5.08713,1.00683 2.80852,0 5.03414,-1.00683 2.22561,-1.05981 3.76235,-2.96749 1.58973,-1.90767 2.43758,-4.6102 0.84786,-2.75553 0.84786,-6.09396 0,-3.33842 -0.84786,-6.04096 -0.84785,-2.75553 -2.43758,-4.6632 -1.53674,-1.90767 -3.76235,-2.9145 -2.22562,-1.05982 -5.03414,-1.05982 -2.80852,0 -5.08713,1.05982 -2.22561,1.00683 -3.81534,2.9145 -1.53674,1.90767 -2.38459,4.6632 -0.84785,2.70254 -0.84785,6.04096 z"
       style="font-family:Ubuntu;-inkscape-font-specification:Ubuntu"
       id="path852" />
    <path
       d="m 171.70323,349.57633 q -3.86834,0 -7.04779,-1.27178 -3.17946,-1.27179 -5.45807,-3.70937 -2.2786,-2.43758 -3.55039,-5.98797 -1.21879,-3.60338 -1.21879,-8.21359 0,-4.61021 1.37777,-8.1606 1.43075,-3.60338 3.81534,-6.04096 2.38459,-2.43758 5.56405,-3.70936 3.17945,-1.27178 6.78283,-1.27178 2.27861,0 4.0803,0.31794 1.85468,0.31795 3.17945,0.74187 1.37777,0.42393 2.22562,0.84786 0.84786,0.42393 1.1658,0.63589 l -1.48374,4.23927 q -0.47692,-0.31794 -1.37777,-0.68888 -0.90084,-0.37094 -2.06664,-0.74187 -1.11281,-0.37094 -2.49057,-0.5829 -1.32478,-0.26496 -2.70254,-0.26496 -2.9145,0 -5.2461,1.00683 -2.3316,1.00683 -3.97432,2.9145 -1.64271,1.90767 -2.54356,4.6632 -0.84785,2.70253 -0.84785,6.09395 0,3.28544 0.74187,5.98797 0.79486,2.70254 2.3316,4.6632 1.53673,1.90767 3.81534,2.96749 2.3316,1.05982 5.40507,1.05982 3.55039,0 5.88199,-0.74187 2.3316,-0.74187 3.4974,-1.32477 l 1.32478,4.23927 q -0.37094,0.26495 -1.32478,0.68888 -0.95383,0.37094 -2.38459,0.74187 -1.43075,0.37094 -3.33842,0.63589 -1.90768,0.26496 -4.13329,0.26496 z"
       style="font-family:Ubuntu;-inkscape-font-specification:Ubuntu"
       id="path854" />
    <path
       d="m 188.76625,312.05877 h 5.14011 v 36.72269 h -5.14011 z"
       style="font-family:Ubuntu;-inkscape-font-specification:Ubuntu"
       id="path856" />
    <path
       d="m 227.55553,348.78146 q -0.90084,-2.38459 -1.6957,-4.6632 -0.79487,-2.33159 -1.64272,-4.71619 h -16.63914 l -3.33843,9.37939 h -5.35208 q 2.11963,-5.829 3.97432,-10.75715 1.85468,-4.98114 3.60338,-9.43238 1.80169,-4.45123 3.55039,-8.47854 1.7487,-4.0803 3.65637,-8.05462 h 4.71619 q 1.90767,3.97432 3.65637,8.05462 1.7487,4.02731 3.4974,8.47854 1.80169,4.45124 3.65637,9.43238 1.85468,4.92815 3.97432,10.75715 z m -4.82217,-13.61866 q -1.69571,-4.61021 -3.39141,-8.90247 -1.64272,-4.34525 -3.44441,-8.31957 -1.85468,3.97432 -3.55039,8.31957 -1.64272,4.29226 -3.28544,8.90247 z"
       style="font-family:Ubuntu;-inkscape-font-specification:Ubuntu"
       id="path858" />
    <path
       d="m 260.25083,344.33023 v 4.45123 h -22.09721 v -36.72269 h 5.14012 v 32.27146 z"
       style="font-family:Ubuntu;-inkscape-font-specification:Ubuntu"
       id="path860" />
  </g>
  <g
     aria-label="™"
     id="text28081-6"
     style="font-size:24.9725px;line-height:1.25;fill:url(#linearGradient17043);stroke-width:1.25758">
    <path
       d="m 346.07352,239.19107 v 1.52332 h -2.62211 v 6.79252 h -1.7231 v -6.79252 h -2.62211 v -1.52332 z m 9.48955,0 q 0.19978,1.27359 0.34962,3.27139 0.14983,1.97283 0.34961,5.04445 h -1.74807 q -0.025,-0.62431 -0.05,-1.32354 -0.025,-0.72421 -0.0749,-1.42344 -0.025,-0.7242 -0.0749,-1.42343 -0.05,-0.69923 -0.0999,-1.29857 -0.2747,0.47448 -0.59934,1.12376 -0.32464,0.62432 -0.64929,1.24863 -0.29967,0.62431 -0.59934,1.17371 -0.27469,0.54939 -0.42453,0.87403 h -1.22365 q -0.14984,-0.32464 -0.44951,-0.87403 -0.27469,-0.5494 -0.59934,-1.17371 -0.29967,-0.62431 -0.64928,-1.24863 -0.32464,-0.64928 -0.57437,-1.12376 -0.0499,0.59934 -0.0999,1.29857 -0.0499,0.69923 -0.0999,1.42343 -0.025,0.69923 -0.0499,1.42344 -0.025,0.69923 -0.05,1.32354 h -1.7231 q 0.19978,-3.07162 0.34961,-5.04445 0.14984,-1.9978 0.34962,-3.27139 h 1.64818 q 0.19978,0.42453 0.49945,1.02387 0.29967,0.59934 0.64929,1.29857 0.34961,0.69923 0.69923,1.42343 0.37459,0.7242 0.7242,1.39846 0.32464,-0.67426 0.69923,-1.39846 0.37459,-0.7242 0.7242,-1.42343 0.34962,-0.69923 0.64929,-1.29857 0.29967,-0.59934 0.49945,-1.02387 z"
       style="font-family:Ubuntu;-inkscape-font-specification:Ubuntu"
       id="path847" />
  </g>
  <g
     id="g3566"
     transform="matrix(1.2437711,0,0,1.2437705,-80.474361,-44.019076)"
     style="stroke-width:0.804007">
    <path
       style="color:#000000;fill:url(#linearGradient2995);stroke-linecap:round;-inkscape-stroke:none"
       d="m 206.41797,43.431641 v 2.298828 30.330078 l 2.41601,-0.123047 c 0.55165,-0.02789 1.10207,-0.04527 1.6543,-0.05664 0.42753,0.01804 0.85621,0.04041 1.2832,0.06836 l 2.44922,0.160156 V 43.431641 Z m -36.5625,9.794921 -1.99219,1.152344 -4.7793,2.765625 16.32422,28.283203 2.01563,-1.242187 c 0.87866,-0.54162 1.77212,-1.059112 2.67969,-1.550781 l 2.07617,-1.125 z m 80.92578,0 -1.15039,1.994141 -15.0625,26.095703 2.04883,1.134766 c 0.90379,0.499779 1.79354,1.024684 2.66797,1.574219 l 2.02148,1.269531 16.24609,-28.150391 z m -114.46289,30.679688 -1.14844,1.992187 -2.75,4.769532 28.23438,16.304691 1.14062,-2.02539 c 0.50413,-0.89583 1.03274,-1.77816 1.58594,-2.64454 l 1.29297,-2.02539 z m 148.00195,0 -1.99219,1.150391 -26.02734,15.023439 1.23633,2.01367 c 0.53737,0.87485 1.0492,1.7646 1.53711,2.66797 l 1.125,2.08008 28.01953,-16.173831 z m -161.69922,43.32227 v 2.29882 5.51563 h 32.66993 l -0.11329,-2.40625 c -0.0213,-0.45824 -0.035,-0.91638 -0.0449,-1.375 0.0196,-0.5284 0.0454,-1.05637 0.0801,-1.58399 l 0.16211,-2.44921 z m 143.07813,0 0.125,2.41796 c 0.0274,0.53295 0.0447,1.0661 0.0566,1.59961 -0.0176,0.45093 -0.0398,0.90315 -0.0684,1.35352 l -0.1543,2.44336 h 32.35938 v -7.81445 z m -105.06641,28.08398 -2.05469,1.1875 -26.1582,15.10352 3.89844,6.76367 28.1875,-16.28516 -1.22461,-2.00976 c -0.53332,-0.875 -1.04339,-1.76474 -1.52734,-2.66797 z m 99.7461,0.2168 -1.14258,2.01562 c -0.50808,0.89597 -1.04236,1.77634 -1.59961,2.64258 l -1.30469,2.0293 27.98828,16.14843 3.89844,-6.76171 z m -81.02539,21.41211 -1.21485,2.10351 -15.05469,26.08203 6.77149,3.91797 16.16992,-28.00586 -1.99414,-1.14844 c -0.89625,-0.51598 -1.77858,-1.05768 -2.64453,-1.62304 z m 62.07812,0.24414 -2.01367,1.23632 c -0.88263,0.54182 -1.77979,1.05931 -2.69141,1.55079 l -2.08398,1.12304 16.14062,27.94922 6.76953,-3.91797 z m -35.01367,9.20507 v 2.45118 29.99804 h 7.80273 v -32.37109 l -2.4082,0.11523 c -0.43489,0.0207 -0.87139,0.0345 -1.30664,0.0449 -0.54715,-0.019 -1.09428,-0.0448 -1.64063,-0.0801 z"
       id="rect918" />
  </g>
  <path
     id="circle79"
     style="fill:url(#linearGradient2720);fill-opacity:1;stroke-width:3.99999"
     d="m 181.408,59.20109 a 60.06856,60.06842 0 0 0 -59.5586,52.92774 h 20.17188 A 40.045706,40.045613 0 0 1 181.408,79.224528 40.045706,40.045613 0 0 1 220.80839,112.12883 h 20.1582 A 60.06856,60.06842 0 0 0 181.408,59.20109 Z m -59.61524,66.41015 a 60.06856,60.06842 0 0 0 59.61524,53.72657 60.06856,60.06842 0 0 0 59.61523,-53.72657 h -20.0918 A 40.045706,40.045613 0 0 1 181.408,159.31437 40.045706,40.045613 0 0 1 141.91776,125.61124 Z" />
</svg>
